<?xml version="1.0" encoding="UTF-8" standalone="no"?>
<svg
   xmlns:dc="http://purl.org/dc/elements/1.1/"
   xmlns:cc="http://creativecommons.org/ns#"
   xmlns:rdf="http://www.w3.org/1999/02/22-rdf-syntax-ns#"
   xmlns:svg="http://www.w3.org/2000/svg"
   xmlns="http://www.w3.org/2000/svg"
   xmlns:sodipodi="http://sodipodi.sourceforge.net/DTD/sodipodi-0.dtd"
   xmlns:inkscape="http://www.inkscape.org/namespaces/inkscape"
   xml:space="preserve"
   enable-background="new 0 0 485.628 121.916"
   viewBox="0 0 569.02137 121.916"
   height="3.4407403cm"
   width="16.059048cm"
   y="0px"
   x="0px"
   id="Layer_1"
   version="1.1"
   inkscape:version="0.91 r13725"
   sodipodi:docname="logo-update.svg"
   inkscape:export-filename="/home/torkel/normal/logo/logo.png"
   inkscape:export-xdpi="149.85728"
   inkscape:export-ydpi="149.85728"><sodipodi:namedview
     pagecolor="#ffffff"
     bordercolor="#666666"
     borderopacity="1"
     objecttolerance="10"
     gridtolerance="10"
     guidetolerance="10"
     inkscape:pageopacity="0"
     inkscape:pageshadow="2"
     inkscape:window-width="1600"
     inkscape:window-height="1147"
     id="namedview6268"
     showgrid="false"
     inkscape:zoom="1.6485106"
     inkscape:cx="195.12233"
     inkscape:cy="47.469741"
     inkscape:window-x="0"
     inkscape:window-y="31"
     inkscape:window-maximized="1"
     inkscape:current-layer="Layer_1"
     units="cm"
     inkscape:showpageshadow="false"
     showguides="true"
     inkscape:guide-bbox="true"
     fit-margin-top="0"
     fit-margin-left="0"
     fit-margin-right="0"
     fit-margin-bottom="0" /><metadata
     id="metadata11"><rdf:RDF><cc:Work
         rdf:about=""><dc:format>image/svg+xml</dc:format><dc:type
           rdf:resource="http://purl.org/dc/dcmitype/StillImage" /><dc:title></dc:title></cc:Work></rdf:RDF></metadata><defs
     id="defs9" /><g
     id="g6831"><path
       inkscape:connector-curvature="0"
       style="fill:#225500;stroke:none;stroke-width:2;stroke-linejoin:bevel;stroke-miterlimit:4;stroke-dasharray:none"
       d="m 540.31939,87.152 0,-86.644 -35.268,0 0,119.896 63.97,0 0,-33.252 -28.702,0 z"
       id="path3346" /><path
       sodipodi:nodetypes="ccccsssssccccccccccscccccccccccccscccccccccccscccccc"
       inkscape:connector-curvature="0"
       id="path5"
       style="fill:#225500;stroke:none;stroke-width:2;stroke-linejoin:bevel;stroke-miterlimit:4;stroke-dasharray:none"
       d="m 250.866,46.354 c 0,0 0.4269,10.555 -11.577,10.555 l 0,-22.139 c 0,0 9.64757,-1.347865 11.577,11.584 z M 147.591,88.16 c -15.012,0 -27.21,-12.185 -27.21,-27.204 0,-15.025 12.199,-27.204 27.21,-27.204 15.032,0 27.217,12.178 27.217,27.204 0,15.02 -12.185,27.204 -27.217,27.204 z M 354.146,16.115 C 338.534,0 322.405,0.508 322.405,0.508 l -35.261,0 0,115.51 -11.082,-32.394 C 273.55,75.56 269,74.552 269,74.552 285.121,60.443 282.098,41.824 282.098,41.824 277.562,1.011 239.289,0.508 239.289,0.508 l -32.741,0 0,44.865 C 199.655,19.266 175.877,0 147.591,0 117.676,0 92.822,21.534 87.66,49.963 l 0,-49.455 -34.764,0 0,16.619 C 40.806,2.02 16.108,0.508 16.108,0.508 l -16.108,0 0,119.896 35.293,0 0,-70.025 c 14.61,4.029 17.602,25.181 17.602,25.181 l 0,44.845 34.765,0 0,-48.468 c 5.163,28.437 30.017,49.979 59.931,49.979 28.287,0 52.064,-19.275 58.957,-45.402 l 0,43.891 32.237,0 0,-31.23 c 12.594,3.011 15.611,25.686 15.611,25.686 l 1.191,5.544 64.325,0 0,-82.627 c 14.575,1.011 14.575,16.136 14.575,16.136 l 0,66.49 33.259,0 0,-67.498 c 0,-13.13 15.101,-15.628 15.101,-15.628 l 0,83.126 32.258,0 0,-119.896 -30.234,0 c -19.63,1.512 -30.725,15.607 -30.725,15.607 z" /><path
       inkscape:connector-curvature="0"
       id="path4265"
       style="fill:#225500;stroke:none;stroke-width:2;stroke-linejoin:bevel;stroke-miterlimit:4;stroke-dasharray:none"
       d="m 467.20139,78.130465 0,42.226595 33.08222,0 0,-67.526745 c 0.27161,-17.92941 -2.51176,-24.74759 -13.6,-36.791 l 3e-5,0 c -15.612,-16.11499893 -31.741,-15.60699891 -31.741,-15.60699891 l -35.28285,0 0,119.92474391 32.78979,0 0,-42.226595 m 0,-19.84 0,-20.58815 c 14.03947,1.9503 14.75181,15.13816 14.75181,15.13816 l 0,5.44999" /></g></svg>